<svg width="24" height="24" viewBox="0 0 24 24" fill="none" xmlns="http://www.w3.org/2000/svg">
  <!-- Elderly care icon - person with walking aid -->
  <path d="M12 2C13.1 2 14 2.9 14 4C14 5.1 13.1 6 12 6C10.9 6 10 5.1 10 4C10 2.9 10.9 2 12 2Z" fill="currentColor"/>
  <path d="M15 8H9C8.45 8 8 8.45 8 9V14.5C8 15.05 8.45 15.5 9 15.5C9.55 15.5 10 15.05 10 14.5V12H11V21C11 21.55 11.45 22 12 22C12.55 22 13 21.55 13 21V15H13.5V21C13.5 21.55 13.95 22 14.5 22C15.05 22 15.5 21.55 15.5 21V12H16.5V14.5C16.5 15.05 16.95 15.5 17.5 15.5C18.05 15.5 18.5 15.05 18.5 14.5V9C18.5 8.45 18.05 8 17.5 8H15Z" fill="currentColor"/>
  <path d="M19 12L21 14V18H19V12Z" fill="currentColor" opacity="0.7"/>
</svg>
